<?xml version="1.0" encoding="utf-8"?>
<!-- Generator: Adobe Illustrator 24.0.0, SVG Export Plug-In . SVG Version: 6.00 Build 0)  -->
<svg version="1.1" id="Layer_1" xmlns="http://www.w3.org/2000/svg" xmlns:xlink="http://www.w3.org/1999/xlink" x="0px" y="0px"
	 viewBox="0 0 264 280" style="enable-background:new 0 0 264 280;" xml:space="preserve">
<style type="text/css">
	.st0{fill:#B7618D;}
	.st1{fill:#C69C6D;}
	.st2{fill:none;stroke:#000000;stroke-width:2;stroke-miterlimit:10;}
	.st3{fill:none;stroke:#000000;stroke-width:2;stroke-linecap:round;stroke-linejoin:round;stroke-miterlimit:10;}
	.st4{fill:none;}
	.st5{stroke:#000000;stroke-miterlimit:10;}
	.st6{fill:none;stroke:#000000;stroke-miterlimit:10;}
	.st7{fill:#FFFFFF;}
</style>
<desc>Created with getavataaars.com</desc>
<g>
	<path class="st0" d="M88,187.9c0,0,10.2-6.7,19.6-6.8c6.6-0.9,10.5,0.1,10.5,0.1v-13.3l36.3,0.2v13.5c3.2-0.4,6.2-0.4,9-0.2v0
		c0,0,0.1,0,0.2,0c3.6,0.2,7,0.9,10.1,1.8c3.7,1,7.8,2.5,10.8,4.8v0c13.8,8.4,19.7,21.7,19.7,21.7l-0.2,0.5
		c13.5-15.7,21.7-36.2,21.7-58.5c0-49.6-40.2-89.8-89.8-89.8S46.2,102,46.2,151.6c0,22.3,8.1,42.7,21.5,58.3
		C67.8,209.5,70.6,197.5,88,187.9z"/>
	<path class="st1" d="M107.6,214.6h55.8v-33.3c-2.8-0.2-5.8-0.1-9,0.2v-13.5l-36.3-0.2v13.3c0,0-3.9-1-10.5-0.1c0,0,0,0,0,0V214.6z"
		/>
	<g>
		<path class="st1" d="M134.6,58.7c0,0-22.5-0.2-30.4,10.4s-8.6,17.7-9,23.9c-0.4,6.2,3,52.3,3,52.3s12,19.9,21,21.7s34.5,0,34.5,0
			s15.7-8.2,18.4-15.4c2.6-7.1,4.9-25.1,4.5-33.7s0-28.6,0-28.6l-3-16.3l-9-11.3L150,56.5h-13L134.6,58.7z"/>
		<polygon class="st1" points="92.7,107 88.2,108.5 87.4,110.2 87.4,128.6 92.7,134 94.2,134.9 94.2,107 		"/>
		<polygon class="st1" points="179.4,109.5 183.7,110.9 184.5,112.3 184.5,128.4 179.4,133.1 178,133.9 178,109.5 		"/>
		<g>
			<path class="st2" d="M129.2,144.4"/>
			<path class="st3" d="M127.5,145.1c0,0,0.7,4.8,8.9,4.8c7.3,0,9.2-4.8,9.2-4.8"/>
			<path class="st3" d="M105.2,106.9c0,0,1.4-6.7,6.5-9.9c5.6-3.6,12.7-0.8,12.7-0.8"/>
			<path class="st3" d="M167.5,106.1c0,0-1.4-6.1-6.2-9.2c-5.3-3.4-11.9-1-11.9-1"/>
			<g>
				<path class="st4" d="M146.7,126.5c-4.3-2.2-3-13.9-3-13.9c0.1-1.4,0.7-2.4,1.4-3.1c-0.7,0.6-1.4,1.7-1.5,3.2
					c0,0-1.2,11.7,3,13.9s5.4,4.5,17.6,2.5c3.5-0.6,5.9-1.9,7.4-3.5c-1.6,1.5-3.9,2.8-7.3,3.4C152,131,151,128.7,146.7,126.5z"/>
				<path class="st5" d="M184.1,107.6c-0.6-1.5-9-3.8-9-3.8c-3.1-1.8-16.9-1.7-22.1-1.4s-8.9,1.3-12.4,3.1s-8.7,0.4-8.7,0.4
					c-5.2-3.9-15.9-3.4-25.2-3.5s-18.4,4.2-18.4,4.2c-2,0.9,0,6.2,0,6.2c1.3-1.3,4.9,1,4.9,1c0.8,21.5,20.7,18.8,20.7,18.8
					c20.7-1.5,17.3-18.8,17.3-18.8c5.8-2.2,9.6,0.1,9.6,0.1c-2.1,20.5,19.4,18.6,19.4,18.6c20.1-1,18.1-19,18.1-19
					c4.5-0.6,5.8-1,5.8-1C184.4,111.4,184.7,109.1,184.1,107.6z M117.8,129.1c-12.3,2-13.4-0.3-17.6-2.5c-4.3-2.2-3-13.9-3-13.9
					c0.2-3,2.8-4.1,2.9-4.2c9.8-2.9,18.4-1.5,18.4-1.5c11.5,0,10,9,10,9S130,127.1,117.8,129.1z M171.7,125.7
					c-1.6,1.6-4,2.9-7.4,3.5c-12.2,2-13.4-0.3-17.6-2.5s-3-13.9-3-13.9c0.1-1.5,0.8-2.5,1.5-3.2c0.7-0.7,1.4-1,1.4-1
					c9.8-2.9,18.4-1.5,18.4-1.5c11.5,0,10.1,8.9,10.1,8.9S175.8,121.7,171.7,125.7z"/>
				<path class="st6" d="M118.5,107c0,0-8.6-1.4-18.4,1.5c-0.1,0.1-2.7,1.2-2.9,4.2c0,0-1.3,11.7,3,13.9c4.2,2.2,5.3,4.5,17.6,2.5
					c12.2-2,10.7-13.1,10.7-13.1S130,107,118.5,107z"/>
				<path class="st6" d="M174.8,116.1c0,0,1.5-9-10-9c0,0-8.6-1.5-18.4,1.5c0,0-0.6,0.3-1.3,0.9c-0.7,0.7-1.3,1.7-1.4,3.1
					c0,0-1.3,11.7,3,13.9c4.3,2.2,5.3,4.5,17.6,2.5c3.4-0.6,5.7-1.8,7.3-3.4C175.6,121.7,174.8,116.1,174.8,116.1z"/>
				<path class="st5" d="M164.9,107c0,0-8.6-1.4-18.4,1.5c0,0-0.7,0.3-1.4,1c0.7-0.6,1.3-0.9,1.3-0.9c9.8-3,18.4-1.5,18.4-1.5
					c11.5,0,10,9,10,9s0.8,5.6-3.2,9.5c4.1-4,3.4-9.7,3.4-9.7S176.4,107,164.9,107z"/>
			</g>
			<g>
				<path class="st5" d="M170.6,79.7c-0.1-0.3-0.7-1-1.6-1.8C169.8,78.7,170.3,79.3,170.6,79.7c0.6,1.4,4,3.9,4.8,13.6
					s2.3,33,0.9,37.4c-1.4,4.4-1.9,14.3-16.2,15.7c0,0.1,0.1,0.1,0.1,0.1c14.3-1.5,14.8-11.4,16.2-15.7c1.4-4.3,0.1-27.5-0.8-37.3
					C174.7,83.7,171.3,81.2,170.6,79.7z"/>
				<path class="st5" d="M136.9,134.6c-0.5,0.4-5.7-3.6-16.9,1.3c0,0-3.9,2-5.8,10.5c0,0-6.7,0.5-11.8-4.7
					c5.1,5.3,11.9,4.8,11.9,4.8c1.9-8.5,5.8-10.5,5.8-10.5c11.3-4.9,16.5-0.9,16.9-1.3c0.4-0.4,13.4-2,17.5,1.7
					C150.5,132.5,137.3,134.2,136.9,134.6z"/>
				<path class="st5" d="M177.7,71.7c-1.7-9.3-15.5-17.9-15.5-17.9s0,0,0-1.1s2.5-5.9,0.8-5.1c-1.7,0.8-7.2,1.8-7.2,1.8
					s2.4-4.8,0-3.2c-2.4,1.6-5.6,2.4-5.6,2.4c2.2-5.8,0-3.8,0-3.8c-6,2.7-17.3,4.9-26.7,5.5c-9.4,0.6-21.5,8.5-26.4,18.4
					c-4.9,9.9-3.8,35-3.8,35l1.6,24.8c-0.8,8.4,2.5,18.4,2.5,18.4c1.7,7.3,17.2,28.1,44.6,24.3s29.5-18,34-23.8c4.5-5.8,2-16,3.4-44
					C180.7,75.3,179.4,81,177.7,71.7z M146.8,160.9h-3.2c0,0-2.1-3.2-6.7-3.3c-4.6-0.1-6.5,3.3-6.5,3.3h-1.8
					c-13.6-1.8-11.7-21.5-3-20.8c8.6,0.7,11.3-1.1,11.3-1.1c0.6,1.3,9.4,1.1,9.4,1.1s6.5-1.6,8.4,7.2
					C156.5,156.1,146.8,160.9,146.8,160.9z M176.4,130.8c-1.4,4.3-1.9,14.2-16.2,15.7c0,0,0,0-0.1-0.1c0,0,0,0,0,0
					c0,0-2.4-3.2-4.7-8.7c-0.2-0.5-0.5-0.9-0.9-1.3c-4.2-3.8-17.2-2.1-17.5-1.7c-0.4,0.4-5.6-3.6-16.9,1.3c0,0-3.9,2-5.8,10.5
					c0,0-6.8,0.5-11.9-4.8c-3.1-3.2-5.5-8.5-5.4-17.4c0.2-23.5-1.1-29.7,2.8-37.1c4-7.4,3.7-9.5,14.4-19.6c0,0,40.4,0.7,42.6-0.9
					c0,0,8.6,7.5,12.2,11.2c0.9,0.9,1.5,1.5,1.6,1.8c0.7,1.5,4.1,4,5,13.8C176.5,103.3,177.8,126.5,176.4,130.8z"/>
				<path class="st6" d="M176.3,130.7c1.4-4.4-0.1-27.7-0.9-37.4s-4.2-12.2-4.9-13.7c-0.1-0.3-0.7-0.9-1.5-1.7
					c-3.6-3.7-12.1-11.1-12.1-11.1c-2.3,1.6-42.6,0.9-42.6,0.9c-10.7,10.1-10.5,12.2-14.4,19.6c-3.9,7.4-2.6,13.6-2.8,37.1
					c-0.1,8.8,2.3,14.1,5.3,17.3c5,5.2,11.8,4.7,11.8,4.7c1.9-8.5,5.8-10.5,5.8-10.5c11.2-4.9,16.4-0.9,16.9-1.3
					c0.5-0.4,13.6-2.1,17.6,1.8c0.4,0.4,0.8,0.8,1,1.4c2.1,5,4.2,8,4.6,8.6C174.4,145,174.9,135.1,176.3,130.7z"/>
				<path class="st5" d="M99.9,87.3c3.9-7.4,3.7-9.5,14.4-19.6c0,0,40.3,0.7,42.6-0.9c0,0,8.4,7.4,12.1,11.1
					c-3.6-3.6-12.2-11.2-12.2-11.2c-2.2,1.6-42.6,0.9-42.6,0.9c-10.7,10.1-10.4,12.2-14.4,19.6c-3.9,7.4-2.6,13.6-2.8,37.1
					c-0.1,8.9,2.4,14.2,5.4,17.4c-3-3.2-5.4-8.5-5.3-17.3C97.3,100.9,96,94.7,99.9,87.3z"/>
				<path class="st5" d="M154.5,136.4c0.4,0.4,0.7,0.8,0.9,1.3c2.3,5.5,4.7,8.7,4.7,8.7c0,0,0,0,0,0c-0.4-0.6-2.6-3.6-4.6-8.6
					C155.2,137.3,154.9,136.8,154.5,136.4z"/>
				<path class="st6" d="M146.3,140.1c0,0-8.8,0.2-9.4-1.1c0,0-2.7,1.8-11.3,1.1c-8.7-0.7-10.6,19,3,20.8h1.8c0,0,1.9-3.4,6.5-3.3
					c4.6,0.1,6.7,3.3,6.7,3.3h3.2c0,0,9.7-4.8,7.9-13.6C152.8,138.5,146.3,140.1,146.3,140.1z"/>
			</g>
			<path d="M117,121L117,121c-2.5,0-4.5-2-4.5-4.5v0c0-2.5,2-4.5,4.5-4.5h0c2.5,0,4.5,2,4.5,4.5v0C121.5,118.9,119.4,121,117,121z"
				/>
			<path d="M148.2,119.5c0,0,4.4-3,8.1-3c3.7,0,7.1,2.6,7.1,2.6s0.5-4.2-6.5-5.3C150,112.5,148.2,119.5,148.2,119.5z"/>
		</g>
	</g>
	<path class="st1" d="M163.6,181.4c1,0.1,5.2,0.5,10.1,1.8C170.5,182.2,167.2,181.6,163.6,181.4z"/>
	<path class="st1" d="M87.6,227.2l0.4-39.4c-17.4,9.6-20.2,21.6-20.3,22C73.4,216.6,80.1,222.5,87.6,227.2z"/>
	<path class="st1" d="M184.5,187.9v39.2c7.3-4.7,13.9-10.4,19.5-17l0.2-0.5C204.2,209.6,198.2,196.3,184.5,187.9z"/>
	<path class="st7" d="M163.4,181.4L163.4,181.4c0.1,0,0.1,0,0.2,0C163.4,181.4,163.4,181.4,163.4,181.4z"/>
	<path class="st7" d="M88,187.9c7.7-4.3,14.5-6.1,19.6-6.8C98.2,181.2,88,187.9,88,187.9z"/>
	<path class="st7" d="M184.5,187.9c-3-2.3-7.1-3.8-10.8-4.8C177.7,184.3,181.3,186,184.5,187.9L184.5,187.9z"/>
	<path class="st7" d="M173.6,183.2c-4.8-1.3-9.1-1.7-10.1-1.8c-0.1,0-0.1,0-0.2,0v33.3h-55.8v-33.5c0,0,0,0,0,0
		c-5.1,0.7-11.8,2.5-19.6,6.8l-0.4,39.4c14,8.9,30.5,14.1,48.4,14.1c17.9,0,34.5-5.2,48.5-14.2v-39.2
		C181.3,186,177.7,184.3,173.6,183.2z"/>
	<circle cx="97.8" cy="221.4" r="4.1"/>
	<circle cx="174.2" cy="221.4" r="4.1"/>
</g>
</svg>
